<?xml version="1.0" encoding="utf-8"?>
<!-- Generator: Adobe Illustrator 24.0.2, SVG Export Plug-In . SVG Version: 6.00 Build 0)  -->
<svg version="1.1" xmlns="http://www.w3.org/2000/svg" xmlns:xlink="http://www.w3.org/1999/xlink" x="0px" y="0px"
	 viewBox="0 0 1280 1000" style="enable-background:new 0 0 1280 1000;" xml:space="preserve">
<style type="text/css">
	.st0{fill:#292524;}
	.st1{fill:#FFFFFF;}
	.st2{fill:#292929;}
	.st3{fill:#FFFDFD;stroke:#292929;stroke-width:0.5;stroke-miterlimit:10;}
	.st4{fill:#FFFDFD;stroke:#292929;stroke-width:0.5;stroke-linejoin:round;stroke-miterlimit:10;}
	.st5{fill:none;stroke:#292929;stroke-width:0.5;stroke-miterlimit:10;}
	.st6{fill:none;stroke:#292929;stroke-width:0.4529;stroke-miterlimit:10;}
	.st7{fill:#D0D3D4;}
</style>
<g id="Capa_2">
</g>
<g id="OBJECTS">
	<g>
		<rect class="st0" width="1280.23" height="1000"/>
		<g>
			<polygon class="st1" points="232.37,252.95 285,355.8 338.53,252.95 383.34,252.95 305.74,391.89 305.74,466.47 264.55,466.47 
				264.55,391.29 187.26,252.95 			"/>
			<path class="st1" d="M419.42,469.48c-7.63,0-14.74-1.26-21.35-3.76c-6.62-2.5-12.33-6.01-17.14-10.52
				c-4.82-4.52-8.57-9.78-11.28-15.8c-2.7-6.01-4.06-12.63-4.06-19.84c0-7.41,1.65-14.28,4.96-20.6
				c3.31-6.31,7.91-11.68,13.84-16.09c5.91-4.41,12.98-7.87,21.2-10.38c8.22-2.5,17.24-3.76,27.07-3.76c7.02,0,13.88,0.61,20.6,1.81
				c6.72,1.2,12.68,2.91,17.9,5.11v-9.02c0-10.43-2.96-18.45-8.87-24.06c-5.92-5.61-14.68-8.42-26.31-8.42
				c-8.42,0-16.64,1.51-24.66,4.52c-8.02,3.01-16.24,7.41-24.66,13.23l-12.33-25.56c20.24-13.43,42.1-20.16,65.55-20.16
				c22.65,0,40.25,5.57,52.78,16.69c12.52,11.12,18.8,27.22,18.8,48.27v49.02c0,4.2,0.75,7.22,2.25,9.02c1.5,1.8,3.97,2.81,7.36,3
				v34.29c-6.81,1.4-12.73,2.1-17.74,2.1c-7.62,0-13.48-1.71-17.6-5.12c-4.11-3.41-6.66-7.91-7.67-13.53l-0.9-8.72
				c-7.02,9.23-15.54,16.24-25.57,21.06C441.57,467.08,430.84,469.48,419.42,469.48 M430.84,440.01c6.82,0,13.28-1.2,19.39-3.62
				c6.12-2.4,10.88-5.6,14.29-9.62c4.42-3.41,6.62-7.22,6.62-11.43V397.3c-4.81-1.81-10.03-3.25-15.63-4.36
				c-5.62-1.1-11.04-1.65-16.25-1.65c-10.42,0-18.94,2.36-25.56,7.07c-6.61,4.71-9.93,10.67-9.93,17.89
				c0,6.82,2.61,12.49,7.82,16.99C416.81,437.75,423.22,440.01,430.84,440.01"/>
			<path class="st1" d="M695.5,466.47h-40.3v-88.41c0-12.63-2.2-21.86-6.61-27.67c-4.41-5.81-10.52-8.72-18.35-8.72
				c-4.01,0-8.12,0.81-12.33,2.41c-4.21,1.6-8.17,3.86-11.88,6.76c-3.72,2.91-7.07,6.37-10.08,10.37c-3,4.01-5.21,8.42-6.61,13.23
				v92.03h-40.3V308.89h36.39v29.17c5.81-10.02,14.23-17.84,25.26-23.46c11.03-5.61,23.46-8.42,37.3-8.42
				c9.81,0,17.84,1.8,24.06,5.41c6.21,3.61,11.02,8.32,14.43,14.14c3.41,5.81,5.76,12.43,7.07,19.85c1.3,7.41,1.96,14.93,1.96,22.55
				V466.47z"/>
			<path class="st1" d="M738.79,466.47V347.98h-20.74v-30.67h20.74v-9.63c0-19.65,4.7-35.19,14.14-46.62
				c9.42-11.43,22.25-17.13,38.49-17.13c12.83,0,25.75,3.1,38.8,9.32l-8.12,30.38c-3.02-1.61-6.57-2.96-10.69-4.07
				c-4.11-1.09-7.87-1.65-11.28-1.65c-14.04,0-21.04,9.42-21.04,28.26v11.13h38.49v30.67H779.1v118.49H738.79z"/>
			<path class="st1" d="M905.72,469.48c-12.64,0-24.07-2.16-34.29-6.46c-10.23-4.31-18.95-10.18-26.17-17.6
				c-7.21-7.42-12.78-16.03-16.69-25.87c-3.91-9.82-5.86-20.15-5.86-30.98c0-11.22,1.9-21.8,5.71-31.73
				c3.8-9.91,9.33-18.64,16.54-26.16c7.22-7.52,15.98-13.48,26.32-17.89c10.32-4.41,21.9-6.63,34.73-6.63
				c12.83,0,24.3,2.21,34.43,6.63c10.12,4.4,18.74,10.32,25.87,17.74c7.11,7.41,12.52,16.05,16.23,25.86
				c3.71,9.82,5.57,20.06,5.57,30.68c0,2.61-0.05,5.12-0.15,7.52c-0.1,2.4-0.35,4.4-0.75,6.01H865.42c0.6,6.21,2.1,11.73,4.5,16.54
				c2.4,4.82,5.52,8.92,9.32,12.33c3.82,3.41,8.12,6.02,12.94,7.82c4.81,1.81,9.82,2.71,15.03,2.71c8.02,0,15.6-1.95,22.71-5.86
				c7.11-3.92,11.98-9.07,14.59-15.49l34.59,9.63c-5.81,12.03-15.09,21.9-27.82,29.62C938.54,465.63,923.35,469.48,905.72,469.48
				 M946.61,374.45c-1-11.82-5.37-21.3-13.08-28.41c-7.73-7.11-17.09-10.68-28.12-10.68c-5.41,0-10.47,0.95-15.18,2.86
				c-4.71,1.91-8.87,4.56-12.48,7.98c-3.62,3.4-6.57,7.52-8.87,12.33c-2.3,4.8-3.67,10.12-4.06,15.93H946.61z"/>
			<path class="st1" d="M1106.6,343.77c-12.23,0.19-23.15,2.56-32.79,7.06c-9.61,4.51-16.54,11.28-20.75,20.3v95.33h-40.3V308.89
				h36.99v33.68c2.8-5.41,6.11-10.27,9.92-14.59c3.8-4.31,7.92-8.07,12.33-11.28c4.41-3.21,8.87-5.66,13.38-7.37
				c4.51-1.7,8.87-2.56,13.08-2.56h4.96c1.1,0,2.15,0.1,3.16,0.31V343.77z"/>
			<path class="st1" d="M269.08,509.59c0,1.57-0.15,4.64-0.43,9.21c-0.29,4.58-0.65,10.08-1.09,16.51
				c-0.43,6.43-0.85,13.5-1.29,21.22c-0.42,7.72-0.79,15.58-1.07,23.58c-0.3,8-0.54,15.47-0.75,22.4
				c-0.22,6.93-0.29,13.12-0.22,18.55c0.07,5.43,0.32,9.97,0.76,13.61c0.43,3.65,1.08,6.11,1.94,7.39l-9.71,3.64
				c-0.72,0.29-1.58,0.42-2.59,0.42c-1.01,0-2.05-0.27-3.13-0.85c-1.08-0.57-1.98-1.57-2.7-3.01c-0.72-1.43-1.08-3.43-1.08-6
				c0-1,0.03-2.26,0.1-3.76c0.07-1.49,0.12-3.24,0.12-5.25c-1.73,2.86-3.6,5.65-5.61,8.36c-2.01,2.71-4.21,5.08-6.58,7.07
				c-2.37,2-4.93,3.61-7.66,4.82c-2.74,1.22-5.61,1.82-8.63,1.82c-2.88,0-5.69-0.6-8.41-1.82c-2.74-1.21-5.19-3.04-7.34-5.47
				c-2.16-2.43-3.92-5.57-5.28-9.43c-1.37-3.85-2.05-8.5-2.05-13.93c0-9.86,1.15-18.47,3.46-25.83c2.3-7.36,5.21-13.51,8.74-18.44
				c3.52-4.93,7.33-8.64,11.43-11.15c4.11-2.49,7.88-3.74,11.33-3.74c5.33,0,9.42,1.4,12.3,4.17c2.88,2.79,4.96,5.68,6.25,8.69
				c0.15-4.14,0.26-8.03,0.33-11.68c0.07-3.65,0.11-6.75,0.11-9.33c0-10.58-0.22-20.01-0.65-28.29c-0.44-8.28-1.51-14.57-3.24-18.86
				c2.02-1.14,3.85-2.01,5.51-2.58c1.65-0.57,3.13-1,4.42-1.28c1.58-0.43,2.94-0.64,4.1-0.64c3.16,0,5.4,0.89,6.69,2.68
				C268.43,504.19,269.08,506.58,269.08,509.59 M248.58,609.06c0.29-3.71,0.47-7.61,0.54-11.69c0.07-4.07,0.18-8.18,0.33-12.33
				c-1.01,1.57-2.2,2.93-3.57,4.07c-1.37,1.15-2.84,1.44-4.43,0.86c0.58-4.29,0.54-7.57-0.11-9.86c-0.64-2.28-1.54-4-2.69-5.15
				c-1.29-1.28-2.81-2-4.54-2.15c-2.59,0-5.14,1.44-7.66,4.29c-2.52,2.85-4.74,6.39-6.68,10.61c-1.94,4.21-3.49,8.72-4.64,13.5
				c-1.15,4.79-1.72,9.18-1.72,13.18c0,8.01,1.11,13.58,3.35,16.71c2.22,3.15,4.63,4.72,7.22,4.72c2.16,0,4.42-0.85,6.79-2.57
				c2.38-1.72,4.68-3.92,6.9-6.64c2.24-2.71,4.32-5.61,6.26-8.68C245.89,614.88,247.43,611.91,248.58,609.06"/>
			<path class="st1" d="M298,527.17c2.87,0,5.61,0.86,8.2,2.57c2.58,1.72,3.88,4,3.88,6.86c0,2.15-0.55,4.22-1.62,6.22
				c-1.09,2-2.42,3.79-4,5.36c-1.58,1.58-3.38,2.83-5.4,3.76c-2.02,0.93-3.88,1.39-5.61,1.39c-2.31,0-4.18-0.39-5.61-1.18
				c-1.44-0.77-2.56-1.71-3.35-2.77c-0.79-1.09-1.33-2.25-1.62-3.54c-0.29-1.29-0.43-2.5-0.43-3.66c0-1.43,0.21-3.04,0.64-4.82
				c0.44-1.79,1.22-3.43,2.38-4.93c1.15-1.5,2.74-2.75,4.75-3.75C292.24,527.67,294.84,527.17,298,527.17 M282.89,569.83
				c0-0.86,1.15-1.79,3.46-2.78c2.3-1,4.86-1.83,7.66-2.47c2.8-0.65,5.39-1,7.76-1.07c2.38-0.07,3.57,0.46,3.57,1.6
				c0,2.15-0.15,5.19-0.43,9.11c-0.29,3.94-0.65,8.08-1.08,12.43c-0.42,4.37-0.86,8.72-1.29,13.09c-0.43,4.35-0.73,8.03-0.87,11.03
				c-0.29,3.14-0.57,6.57-0.86,10.29c-0.29,3.15-0.51,6.64-0.65,10.49c-0.15,3.86-0.15,7.8,0,11.8c0,0.72-0.72,1.43-2.15,2.14
				c-1.45,0.72-3.03,1.25-4.76,1.62c-1.71,0.35-3.37,0.53-4.96,0.53c-1.59,0-2.45-0.29-2.59-0.85c-0.29-0.57-0.58-1.57-0.87-3
				c-0.28-1.43-0.57-3.46-0.86-6.11c-0.29-2.65-0.5-6.08-0.65-10.29c-0.15-4.21-0.07-9.33,0.22-15.34
				c0.57-11.85,0.65-21.03,0.21-27.54C283.32,578.01,283.04,573.12,282.89,569.83 M292.61,547.11c0.87,0,1.83-0.33,2.91-0.97
				c1.09-0.65,2.08-1.4,3.03-2.25c0.93-0.86,1.73-1.78,2.37-2.79c0.65-1,0.98-1.85,0.98-2.58c0-1.14-0.58-1.71-1.73-1.71
				c-0.72,0-1.62,0.29-2.7,0.86c-1.08,0.57-2.13,1.25-3.12,2.03c-1.01,0.8-1.84,1.65-2.49,2.58c-0.64,0.92-0.97,1.83-0.97,2.68
				C290.88,546.39,291.45,547.11,292.61,547.11"/>
			<path class="st1" d="M354.32,604.98c3.16,1.14,6.18,2.21,9.06,3.21c2.88,1,5.4,2.22,7.56,3.64c2.16,1.44,3.88,3.11,5.18,5.04
				c1.29,1.93,1.94,4.33,1.94,7.18c0,3.43-0.76,6.65-2.27,9.65c-1.51,3-3.71,5.65-6.59,7.92c-2.88,2.29-6.36,4.11-10.47,5.47
				c-4.1,1.35-8.66,2.03-13.7,2.03c-5.61,0-10.14-0.54-13.59-1.6c-3.46-1.07-6.12-2.33-7.99-3.75c-1.87-1.43-3.09-2.86-3.67-4.29
				c-0.57-1.43-0.86-2.56-0.86-3.42c0-1.72,0.35-3.61,1.08-5.68c0.72-2.07,2.09-4.33,4.1-6.76c0.86-0.99,1.8-1.92,2.81-2.78
				c2.01-1.72,4.02-2.79,6.04-3.22c-0.29,3.29,0.1,5.97,1.18,8.04c1.09,2.07,2.52,3.69,4.32,4.82c1.8,1.15,3.81,1.93,6.05,2.36
				c2.22,0.43,4.34,0.64,6.36,0.64c2.02,0,4.07-0.28,6.15-0.86c2.09-0.56,4-1.31,5.72-2.24c1.73-0.94,3.13-2,4.21-3.22
				c1.08-1.2,1.62-2.53,1.62-3.97c0-1.56-0.64-2.85-1.94-3.85c-1.29-1-2.91-1.82-4.85-2.47c-1.96-0.64-4.04-1.14-6.26-1.5
				c-2.23-0.35-4.36-0.75-6.37-1.18c-2.01-0.42-4.71-1.04-8.08-1.83c-3.39-0.78-6.69-2.03-9.93-3.76c-3.24-1.71-6.04-3.99-8.41-6.85
				c-2.38-2.86-3.56-6.65-3.56-11.37c0-5.43,1.4-10.17,4.21-14.25c2.81-4.07,6.25-7.5,10.35-10.29c4.1-2.78,8.44-4.89,13.06-6.32
				c4.6-1.43,8.69-2.15,12.29-2.15c1.87,0,3.89,0.26,6.05,0.76c2.15,0.49,4.16,1.36,6.03,2.57c1.88,1.22,3.41,2.82,4.65,4.82
				c1.21,2,1.82,4.58,1.82,7.72c0,3.15-0.25,5.68-0.75,7.61c-0.51,1.93-1.23,3.43-2.16,4.5c-0.94,1.07-2.05,1.75-3.35,2.04
				c-1.29,0.28-2.8,0.42-4.53,0.42c-1.15,0-2.23-0.14-3.24-0.42c-0.87-0.29-1.8-0.57-2.81-0.86c-1-0.29-1.94-0.79-2.8-1.5
				c1.43-1.71,2.55-3.35,3.34-4.93c0.79-1.57,1.19-3.5,1.19-5.79c0-2-0.54-3.78-1.62-5.36c-1.09-1.57-2.85-2.36-5.3-2.36
				c-2.59,0-5.07,0.5-7.44,1.5c-2.38,1-4.46,2.36-6.26,4.07c-1.8,1.72-3.24,3.68-4.31,5.89c-1.08,2.22-1.62,4.61-1.62,7.19
				c0,3.85,1.47,7.5,4.42,10.94C343.35,599.62,347.99,602.55,354.32,604.98"/>
			<path class="st1" d="M419.49,648.07c-10.07,0-17.84-3.36-23.31-10.08c-5.47-6.72-8.2-15.5-8.2-26.36
				c0-7.59,1.12-14.69,3.35-21.34c2.23-6.63,5.21-12.39,8.96-17.26c3.74-4.85,8.09-8.67,13.06-11.46
				c4.96-2.79,10.17-4.19,15.64-4.19c5.33,0,9.85,1.9,13.6,5.68c3.74,3.79,5.61,9.18,5.61,16.19c0,4.57-1.01,9.11-3.02,13.61
				c-2.02,4.51-4.65,8.5-7.88,12c-3.24,3.5-6.8,6.33-10.68,8.47c-3.89,2.14-7.63,3.21-11.23,3.21c-2.3,0-4.24-0.29-5.83-0.86
				c-1.59-0.57-3.02-1.43-4.32-2.57c0.44,8.15,2.24,13.83,5.39,17.05c3.16,3.21,7.27,4.81,12.3,4.81c3.45,0,6.51-0.71,9.17-2.13
				c2.66-1.43,4.93-3.07,6.8-4.93c1.87-1.86,3.37-3.76,4.53-5.69c1.15-1.92,1.94-3.39,2.38-4.38c0.43-0.86,1.18-1.29,2.27-1.29
				c1.08,0,1.62,0.86,1.62,2.58c0,1.57-0.55,3.97-1.62,7.18c-1.08,3.21-2.84,6.43-5.29,9.65c-2.45,3.22-5.58,6.03-9.39,8.47
				C429.59,646.85,424.95,648.07,419.49,648.07 M429.42,566.61c-0.87,0-2.49,0.9-4.85,2.68c-2.38,1.79-4.9,4.39-7.55,7.82
				c-2.67,3.42-5.11,7.54-7.34,12.33c-2.24,4.79-3.64,10.18-4.21,16.19c8.63-2.01,15.47-5.15,20.5-9.44
				c5.03-4.28,7.55-10.57,7.55-18.87c0-4.13-0.51-6.96-1.51-8.46C430.99,567.36,430.13,566.61,429.42,566.61"/>
			<path class="st1" d="M484.66,639.93c-0.15,0.85-0.9,1.74-2.27,2.67c-1.37,0.93-2.95,1.75-4.74,2.47
				c-1.81,0.72-3.49,1.18-5.07,1.4c-1.58,0.21-2.67,0.02-3.24-0.54c-0.58-0.57-1.51-1.63-2.81-3.21c-1.29-1.57-2.08-4.14-2.38-7.72
				c-0.29-3.71-0.43-8.39-0.43-14.04c0-5.64-0.07-11.88-0.21-18.75v-8.57c0-2.58-0.04-5.58-0.11-9.01
				c-0.07-3.42-0.18-6.99-0.33-10.71c1.3-0.71,2.62-1.39,4-2.04c1.36-0.65,2.62-1.17,3.77-1.6c1.29-0.57,2.51-1,3.67-1.29
				c3.02-0.86,5.32-1.36,6.9-1.5c1.59-0.15,2.52,0.35,2.81,1.5c0.14,0.86,0.07,2.93-0.21,6.21c-0.29,2.86-0.65,7.18-1.08,12.97
				c-0.44,5.78-1.15,13.83-2.16,24.11c1.87-4.57,3.43-8.5,4.64-11.79c1.22-3.28,2.27-5.93,3.13-7.93c0.86-2.43,1.65-4.35,2.37-5.78
				c0.72-1.86,1.65-3.94,2.8-6.23c1.15-2.28,2.33-4.42,3.56-6.42c1.22-2,2.38-3.79,3.46-5.37c1.08-1.56,1.9-2.49,2.48-2.78
				c0.43-0.28,1.73-0.28,3.88,0c2.16,0.29,4.46,0.96,6.91,2.03c2.44,1.07,4.81,2.57,7.11,4.51c2.3,1.92,3.81,4.25,4.53,6.96
				c0.86,3.14,1.19,7.29,0.98,12.43c-0.22,5.15-0.58,10.44-1.08,15.86c-0.51,5.44-0.9,10.58-1.19,15.43
				c-0.29,4.87,0,8.57,0.87,11.15c0.28,1.43,0.72,2.72,1.29,3.86c0.29,1.15,0.69,2.18,1.19,3.11c0.5,0.94,1.04,1.61,1.61,2.03
				c-3.44,1.58-6.25,2.73-8.41,3.43c-2.16,0.72-3.81,1.22-4.96,1.51c-1.45,0.42-2.45,0.57-3.04,0.42c-1.29-0.42-2.41-1.51-3.34-3.21
				c-0.93-1.71-1.76-4.43-2.48-8.14c-0.29-1.14-0.4-3.04-0.32-5.68c0.07-2.65,0.25-5.64,0.54-9c0.29-3.36,0.61-6.86,0.98-10.51
				c0.35-3.65,0.65-7.08,0.86-10.3c0.21-3.21,0.4-5.99,0.54-8.35c0.15-2.36,0.15-3.96,0-4.83c-0.72-2.56-1.73-4.39-3.02-5.46
				c-1.3-1.07-2.31-1.17-3.03-0.32c-1.87,2.14-3.85,5.62-5.93,10.4c-2.08,4.79-4.06,10.01-5.93,15.65
				c-1.88,5.65-3.45,11.25-4.75,16.83C485.74,631.34,484.94,636.06,484.66,639.93 M511.63,537.45c1.43-0.14,2.95-0.57,4.53-1.28
				c1.29-0.72,2.7-1.65,4.21-2.79c1.51-1.14,2.98-2.85,4.42-5.14c0.58,0.72,0.94,1.85,1.09,3.43c0.13,1.57,0.1,3.22-0.11,4.93
				c-0.21,1.71-0.58,3.43-1.07,5.14c-0.51,1.72-1.12,3.14-1.85,4.28c-0.72,1.01-1.94,2.15-3.66,3.43c-1.73,1.29-3.96,1.93-6.69,1.93
				c-2.88,0-5.44-0.43-7.66-1.29c-2.24-0.86-4.25-1.82-6.04-2.9c-1.81-1.07-3.53-2.03-5.18-2.89c-1.65-0.86-3.27-1.28-4.86-1.28
				c-1.44,0.14-2.95,0.49-4.53,1.07c-1.29,0.57-2.81,1.42-4.53,2.57c-1.73,1.14-3.45,2.78-5.18,4.93c-1.15-0.42-2.09-1.32-2.8-2.68
				c-0.72-1.37-1.23-2.82-1.51-4.39c-0.29-1.57-0.46-3.04-0.54-4.4c-0.07-1.35-0.04-2.39,0.1-3.11c1.87-2,3.74-3.5,5.61-4.5
				c1.87-1,3.59-1.78,5.18-2.36c1.73-0.57,3.46-0.93,5.18-1.07c2.44,0,4.63,0.47,6.58,1.39c1.94,0.93,3.88,1.93,5.83,3.01
				c1.94,1.07,3.95,2.04,6.03,2.9C506.27,537.24,508.75,537.59,511.63,537.45"/>
			<path class="st1" d="M601.4,608.84c-0.29,5.57-1.26,10.71-2.92,15.43c-1.64,4.72-3.91,8.83-6.79,12.33
				c-2.88,3.51-6.29,6.26-10.25,8.26c-3.97,1.99-8.31,3.06-13.06,3.21c-4.18,0.14-8.09-0.86-11.76-3c-3.66-2.15-6.87-5.15-9.6-9
				c-2.73-3.85-4.79-8.47-6.15-13.83c-1.37-5.36-1.77-11.17-1.19-17.47c0.43-7.27,1.8-13.53,4.1-18.75
				c2.31-5.22,4.76-9.53,7.33-12.97c2.6-3.43,5-5.96,7.24-7.6c2.23-1.65,3.63-2.62,4.21-2.9c1.01-0.43,1.94-0.54,2.8-0.32
				c0.87,0.2,1.8,0.46,2.81,0.75c0.29,0.14,0.57,0.49,0.87,1.07c0.57,1,0.93,2.86,1.08,5.57c0.72-1.57,1.65-2.86,2.8-3.86
				s2.3-1.71,3.46-2.14c1.43-0.57,2.87-0.92,4.32-1.07c1-0.14,2.76,0.64,5.28,2.35c2.52,1.72,4.96,4.44,7.34,8.15
				c2.37,3.73,4.42,8.54,6.15,14.48C601.19,593.44,601.84,600.55,601.4,608.84 M586.72,606.27c0.14-3.43,0.03-6.89-0.32-10.4
				c-0.36-3.5-0.94-6.72-1.73-9.65c-0.79-2.93-1.77-5.28-2.91-7.07c-1.16-1.79-2.31-2.68-3.46-2.68c-1.29,0.29-2.74,0.93-4.32,1.93
				c-1.29,0.86-2.73,2.22-4.31,4.08c-1.59,1.85-3.1,4.49-4.54,7.92c-0.15-0.42-0.29-1.2-0.44-2.36c-0.14-1-0.25-2.33-0.32-3.97
				c-0.07-1.64,0.04-3.89,0.32-6.76c-2.02,2.43-3.55,5.3-4.63,8.58c-1.09,3.29-1.91,6.43-2.49,9.43c-0.57,3.57-1.01,7.15-1.29,10.72
				c-0.14,3.86,0.03,7.64,0.54,11.36c0.51,3.72,1.37,7.01,2.6,9.86c1.21,2.85,2.69,5.14,4.42,6.86c1.73,1.71,3.81,2.5,6.26,2.36
				c2.45-0.14,4.6-1.15,6.47-3.01c1.87-1.85,3.53-4.21,4.96-7.07c1.44-2.86,2.59-6.07,3.45-9.64
				C585.86,613.2,586.44,609.7,586.72,606.27"/>
			<path class="st1" d="M683.19,647.63c-3.03,0-6.12-0.78-9.28-2.36c-3.17-1.56-6.12-3.97-8.85-7.17
				c-2.74-3.22-4.96-7.22-6.69-12.01c-1.72-4.79-2.59-10.4-2.59-16.83c0-9.43,1.22-17.26,3.67-23.48c2.44-6.21,5.43-11.22,8.96-15
				c3.52-3.77,7.37-6.46,11.54-8.03c4.17-1.59,7.98-2.36,11.44-2.36c3.6,0,6.58,0.61,8.96,1.83c2.37,1.22,4.35,2.61,5.93,4.18v-4.07
				c0.86-0.72,1.84-1.36,2.92-1.93c1.08-0.57,2.19-1,3.34-1.29c1.15-0.43,2.38-0.64,3.67-0.64h3.24c0.86,0.14,1.76,0.28,2.7,0.42
				c0.93,0.14,1.61,0.5,2.05,1.07c-0.87,18.72-1.59,33.88-2.16,45.45c-0.58,11.57-1.01,20.57-1.29,27
				c-0.43,7.58-0.72,13.08-0.86,16.52c-0.3,5.99-1.09,11.96-2.39,17.89c-1.29,5.93-3.3,11.25-6.03,15.97
				c-2.73,4.72-6.33,8.5-10.79,11.36c-4.46,2.87-9.93,4.29-16.4,4.29c-5.61,0-10.1-1.07-13.49-3.21c-3.39-2.15-5.97-4.79-7.76-7.93
				c-1.81-3.14-2.98-6.47-3.57-9.97c-0.57-3.51-0.87-6.69-0.87-9.54c0-0.72,0.4-1.79,1.19-3.21c0.8-1.44,1.94-2.89,3.46-4.4
				c1.51-1.5,3.41-2.83,5.72-3.97c2.29-1.15,4.89-1.87,7.76-2.14c-1.29,3.86-2.08,7.36-2.38,10.5c-0.27,1.71-0.35,3.43-0.22,5.14
				c0,4.72,0.94,8.65,2.8,11.79c1.88,3.15,4.76,4.72,8.65,4.72c4.17,0,7.55-1.75,10.14-5.24c2.59-3.52,4.57-7.72,5.94-12.65
				c1.36-4.93,2.3-10.07,2.8-15.44c0.5-5.35,0.75-9.89,0.75-13.61v-6.21c-0.86,1.57-1.91,3.21-3.12,4.93
				c-1.23,1.71-2.7,3.28-4.42,4.71c-1.73,1.43-3.78,2.61-6.15,3.54C689.12,647.18,686.34,647.63,683.19,647.63 M692.03,572.6
				c-2.45,0-4.79,1.09-7.01,3.22c-2.24,2.15-4.21,4.96-5.94,8.47c-1.73,3.51-3.09,7.47-4.1,11.9c-1.01,4.43-1.51,8.86-1.51,13.29
				c0,2.86,0.18,5.78,0.54,8.79c0.36,3,1.07,5.75,2.15,8.25c1.09,2.5,2.49,4.53,4.21,6.12c1.73,1.56,4.03,2.35,6.92,2.35
				c2.15-0.14,4.16-1,6.03-2.58c1.59-1.29,3.21-3.35,4.86-6.21c1.65-2.86,2.99-6.93,3.99-12.22c1.14,1.14,2.05,2.22,2.7,3.21
				c0.64,1,1.19,1.93,1.62,2.78c0.14-1.14,0.25-2.49,0.32-4.07c0.08-1.57,0.11-3.35,0.11-5.35c0-3.85-0.21-8.04-0.65-12.55
				c-0.42-4.5-1.19-8.6-2.27-12.31c-1.07-3.72-2.59-6.83-4.53-9.33C697.52,573.86,695.05,572.6,692.03,572.6"/>
			<path class="st1" d="M796.04,579.9c0,2-0.54,4.04-1.62,6.11c-1.07,2.07-2.42,4.04-3.99,5.9c-1.59,1.86-3.34,3.47-5.29,4.82
				c-1.94,1.37-3.78,2.18-5.51,2.47c1.15-4.43,1.51-7.86,1.09-10.3c-0.44-2.42-1.14-4.2-2.16-5.35c-1.16-1.28-2.59-1.99-4.32-2.15
				c-2.59,0-5.07,1.48-7.44,4.39c-2.37,2.93-4.42,6.51-6.15,10.72c-1.72,4.22-3.09,8.71-4.1,13.51c-1.01,4.79-1.51,9.11-1.51,12.96
				c-0.14,2.72-0.08,5.37,0.23,7.93c0.14,2.15,0.39,4.36,0.75,6.65c0.35,2.29,0.89,4.07,1.61,5.36c-0.86,0.72-2.27,1.57-4.2,2.58
				c-1.94,0.99-3.96,1.63-6.05,1.92c-2.09,0.29-3.95-0.07-5.61-1.07c-1.66-1-2.55-3.14-2.7-6.42c-0.29-3.15-0.46-6.68-0.53-10.62
				c-0.08-3.93-0.08-7.85,0-11.79c0.07-3.92,0.17-7.82,0.32-11.68c0.14-3.86,0.36-7.44,0.64-10.72c0.29-6.29,0.43-11.15,0.43-14.59
				c0-3.43-0.08-6.71-0.21-9.85c0-0.57,0.97-1.4,2.91-2.47c1.94-1.07,4.1-2.03,6.48-2.9c2.38-0.86,4.57-1.35,6.58-1.5
				c2.02-0.14,3.02,0.29,3.02,1.29c0,1.57-0.18,4.67-0.54,9.32c-0.36,4.65-0.82,9.47-1.41,14.47c1.01-2.71,2.34-5.64,4-8.78
				c1.66-3.14,3.57-6.07,5.72-8.79c2.16-2.71,4.6-4.97,7.33-6.74c2.73-1.8,5.76-2.69,9.06-2.69c2.59,0,4.71,0.79,6.37,2.36
				c1.65,1.57,2.98,3.36,3.99,5.36c1.01,2.02,1.73,4.01,2.15,6.01C795.82,577.61,796.04,579.05,796.04,579.9"/>
			<path class="st1" d="M865.3,634.78c0.29,1,0.72,1.93,1.3,2.78c0.43,0.72,1.04,1.4,1.83,2.04c0.79,0.64,1.76,1.04,2.92,1.18
				c-1.01,2-2.02,3.36-3.02,4.07c-0.57,0.43-1.09,0.72-1.51,0.85c-1.3,0.43-3.24,0.64-5.83,0.64c-2.58,0-5.1-0.77-7.56-2.35
				c-0.86-0.72-1.65-1.79-2.37-3.21c-0.72-1.14-1.33-2.75-1.84-4.82c-0.51-2.07-0.89-4.75-1.19-8.04
				c-2.01,4.29-4.28,7.69-6.79,10.19c-2.52,2.49-5,4.32-7.44,5.46c-2.73,1.57-5.53,2.5-8.41,2.78c-3.6,0.29-7.02-0.31-10.25-1.81
				c-3.24-1.5-5.97-3.78-8.2-6.87c-2.23-3.06-3.92-6.82-5.07-11.25c-1.15-4.43-1.51-9.42-1.07-15c0.42-5.86,1.57-11.07,3.45-15.65
				c1.85-4.57,4.09-8.65,6.68-12.22c2.59-3.57,5.31-6.61,8.2-9.11c2.87-2.5,5.63-4.57,8.29-6.21c2.67-1.65,4.97-2.86,6.91-3.64
				c1.94-0.79,3.2-1.25,3.78-1.4c1.57-0.44,2.93-0.57,4.1-0.44c1.14,0.15,2.15,0.79,3.01,1.93c0.29,0.43,0.65,0.94,1.08,1.5
				c0.3,0.58,0.65,1.33,1.09,2.25c0.43,0.93,0.79,1.97,1.08,3.1c-3.45,1.59-6.68,3.33-9.71,5.26c-3.02,1.93-5.79,4.25-8.31,6.96
				c-2.52,2.72-4.72,6.01-6.58,9.86c-1.87,3.86-3.32,8.57-4.32,14.14c-1.44,7-1.05,12.65,1.19,16.93c2.23,4.29,5.28,6.07,9.18,5.35
				c2.3-0.71,4.53-2.06,6.68-4.07c1.87-1.72,3.85-4.28,5.94-7.72c2.08-3.43,4.07-8.15,5.93-14.16c0.71-8.57,1.33-15.33,1.82-20.25
				c0.51-4.94,0.98-8.68,1.4-11.25c0.58-3.01,1.01-5,1.3-6c0.43-0.72,1.3-1.39,2.6-2.03c1.29-0.65,2.72-1.18,4.31-1.62
				c1.59-0.42,3.03-0.67,4.32-0.75c1.29-0.07,2.15-0.03,2.59,0.11c0.28,0.14,0.42,1.89,0.42,5.24c0,3.37-0.1,7.59-0.32,12.66
				c-0.21,5.07-0.47,10.58-0.75,16.51c-0.29,5.93-0.54,11.54-0.75,16.83c-0.21,5.28-0.37,9.89-0.44,13.82
				C864.9,631.3,865.02,633.77,865.3,634.78 M853.22,510.66c1.88,1.57,3.42,3.75,4.65,6.53c1.22,2.79,1.32,5.47,0.31,8.04
				c-0.43,1.29-1.68,3.11-3.77,5.47c-2.09,2.36-4.32,4.72-6.68,7.07c-2.38,2.36-4.57,4.47-6.59,6.33c-2.02,1.86-3.23,2.93-3.67,3.22
				c-0.71,0.72-1.93,0.89-3.66,0.53c-1.73-0.35-3.24-1.31-4.53-2.89c-0.44-0.57-0.79-1.14-1.08-1.71c-0.29-0.57-0.54-1.17-0.76-1.82
				c-0.21-0.64-0.24-1.32-0.1-2.03c3.59-5.3,6.43-9.51,8.52-12.65c2.09-3.14,3.7-5.5,4.85-7.07l2.59-3.86
				c0.72-1.14,1.4-2.35,2.05-3.64c0.65-1.29,0.97-2.72,0.97-4.29c0.72-0.14,1.47-0.04,2.27,0.32c0.8,0.36,1.55,0.68,2.27,0.97
				C851.57,509.73,852.36,510.23,853.22,510.66"/>
			<path class="st1" d="M924.65,506.37c4.17,0.3,7.91,1.29,11.22,3.01c2.89,1.57,5.47,4.04,7.78,7.39c2.3,3.35,3.52,8.11,3.67,14.26
				c-2.16,1.56-4.32,2.71-6.47,3.42c-2.16,0.72-4.1,1.22-5.83,1.5c-2.01,0.29-3.95,0.29-5.83,0c0.57-4,0.61-7.07,0.1-9.22
				c-0.49-2.15-1.18-3.71-2.05-4.72c-1-1.14-2.3-1.78-3.88-1.93c-4.75,0-8.25,3.53-10.47,10.61c-2.24,7.08-3.57,16.76-4,29.05
				c2.02-0.29,3.8-0.64,5.4-1.07c1.59-0.42,3.38-0.71,5.4-0.86c1.86-0.14,3.67-0.21,5.38-0.21c1.59,0,3.2,0.16,4.86,0.43
				c1.66,0.29,3.2,0.79,4.64,1.5c0.29,2.43,0.29,4.64,0,6.64c-0.29,2-0.72,3.79-1.3,5.36c-0.57,1.72-1.36,3.37-2.37,4.93
				c-1.72-0.85-3.84-1.43-6.37-1.71c-2.52-0.28-4.93-0.43-7.22-0.43c-2.74,0-5.54,0.15-8.42,0.43c0.14,6.58,0.29,12.76,0.44,18.54
				c0.14,5.79,0.32,11.43,0.54,16.94c0.21,5.51,0.47,11,0.76,16.51c0.28,5.5,0.57,11.11,0.86,16.83c-1.59,2-3.28,3.26-5.08,3.76
				c-1.79,0.5-3.48,0.67-5.07,0.54c-1.87-0.16-3.74-0.66-5.6-1.51c-1.15-9.42-2.05-18.32-2.7-26.68
				c-0.66-8.36-1.19-15.68-1.62-21.97c-0.58-7.29-1.01-14.01-1.3-20.16c-2.44,0.29-4.5,0.46-6.15,0.54
				c-1.65,0.07-2.92,0.04-3.77-0.11c-0.57,0-0.86-0.43-0.86-1.29l-0.21-10.08c0-0.57,0.29-0.86,0.86-0.86
				c1-0.27,2.34-0.61,3.99-0.96c1.65-0.35,3.63-0.82,5.93-1.39c0.58-18.16,3.67-32.2,9.28-42.12
				C904.8,511.34,913.29,506.37,924.65,506.37"/>
			<path class="st1" d="M961.18,527.17c2.88,0,5.61,0.86,8.2,2.57c2.59,1.72,3.89,4,3.89,6.86c0,2.15-0.54,4.22-1.62,6.22
				c-1.09,2-2.41,3.79-4.01,5.36c-1.57,1.58-3.36,2.83-5.38,3.76c-2.03,0.93-3.89,1.39-5.62,1.39c-2.3,0-4.17-0.39-5.62-1.18
				c-1.43-0.77-2.54-1.71-3.34-2.77c-0.79-1.09-1.33-2.25-1.62-3.54c-0.29-1.29-0.44-2.5-0.44-3.66c0-1.43,0.22-3.04,0.64-4.82
				c0.44-1.79,1.23-3.43,2.38-4.93c1.15-1.5,2.73-2.75,4.75-3.75C955.42,527.67,958.02,527.17,961.18,527.17 M946.08,569.83
				c0-0.86,1.15-1.79,3.45-2.78c2.3-1,4.85-1.83,7.66-2.47c2.81-0.65,5.4-1,7.77-1.07c2.38-0.07,3.56,0.46,3.56,1.6
				c0,2.15-0.14,5.19-0.43,9.11c-0.29,3.94-0.65,8.08-1.08,12.43c-0.44,4.37-0.86,8.72-1.29,13.09c-0.43,4.35-0.73,8.03-0.87,11.03
				c-0.27,3.14-0.56,6.57-0.86,10.29c-0.29,3.15-0.5,6.64-0.64,10.49c-0.16,3.86-0.16,7.8,0,11.8c0,0.72-0.72,1.43-2.17,2.14
				c-1.44,0.72-3.01,1.25-4.74,1.62c-1.73,0.35-3.39,0.53-4.96,0.53c-1.59,0-2.44-0.29-2.59-0.85c-0.3-0.57-0.58-1.57-0.87-3
				c-0.29-1.43-0.58-3.46-0.86-6.11c-0.28-2.65-0.51-6.08-0.65-10.29c-0.14-4.21-0.07-9.33,0.23-15.34
				c0.57-11.85,0.64-21.03,0.21-27.54C946.5,578.01,946.23,573.12,946.08,569.83 M955.79,547.11c0.86,0,1.84-0.33,2.91-0.97
				c1.08-0.65,2.07-1.4,3.02-2.25c0.94-0.86,1.72-1.78,2.37-2.79c0.66-1,0.98-1.85,0.98-2.58c0-1.14-0.57-1.71-1.72-1.71
				c-0.72,0-1.63,0.29-2.71,0.86c-1.07,0.57-2.12,1.25-3.12,2.03c-1.01,0.8-1.83,1.65-2.49,2.58c-0.64,0.92-0.97,1.83-0.97,2.68
				C954.06,546.39,954.64,547.11,955.79,547.11"/>
			<path class="st1" d="M1036.43,618.7c0,1.57-0.54,3.97-1.62,7.17c-1.09,3.22-2.84,6.43-5.29,9.65c-2.46,3.22-5.58,6.04-9.39,8.47
				c-3.82,2.43-8.45,3.64-13.92,3.64c-7.76,0-14.28-2.1-19.52-6.32c-5.26-4.21-8.96-10.26-11.11-18.12
				c-1.74-6.57-2.2-13.61-1.4-21.11c0.78-7.51,2.84-14.47,6.14-20.91c3.3-6.43,7.91-11.89,13.81-16.39c5.9-4.5,13.09-6.97,21.57-7.4
				c4.32-0.13,7.92,0.64,10.79,2.36c2.87,1.71,5.1,3.92,6.69,6.65c1.59,2.7,2.52,5.68,2.8,8.89c0.3,3.21-0.04,6.26-0.97,9.11
				c-0.94,2.87-2.38,5.26-4.32,7.2c-1.94,1.92-4.42,2.96-7.44,3.1c-3.03,0.29-5.51-0.11-7.45-1.18c-1.94-1.07-3.45-2.4-4.53-3.96
				c-1.08-1.58-1.8-3.22-2.15-4.94c-0.37-1.71-0.41-3.21-0.11-4.49c0.43-1.86,1.14-3.57,2.15-5.15c0.86-1.42,2.12-2.86,3.78-4.29
				c1.66-1.43,3.85-2.57,6.58-3.42c-0.44-0.29-0.86-0.44-1.3-0.44c-0.43,0-0.86-0.07-1.29-0.21c-0.58,0-1-0.07-1.3-0.2
				c-2.3,0-4.93,0.78-7.87,2.35c-2.96,1.57-5.76,4.07-8.42,7.5c-2.66,3.42-4.89,7.83-6.68,13.18c-1.8,5.35-2.7,11.82-2.7,19.4
				c0,3.29,0.36,6.54,1.09,9.75c0.72,3.21,1.83,6.07,3.34,8.57c1.5,2.5,3.37,4.5,5.61,6c2.22,1.51,4.86,2.25,7.88,2.25
				c3.46,0,6.5-0.75,9.16-2.25c2.67-1.5,4.93-3.25,6.81-5.25c1.87-2,3.34-3.99,4.42-5.99c1.07-2,1.83-3.51,2.27-4.5
				c0.43-0.86,1.18-1.29,2.27-1.29C1035.89,616.12,1036.43,616.99,1036.43,618.7"/>
			<path class="st1" d="M1108.49,608.84c-0.29,5.57-1.25,10.71-2.9,15.43c-1.66,4.72-3.92,8.83-6.8,12.33
				c-2.89,3.51-6.3,6.26-10.26,8.26c-3.96,1.99-8.3,3.06-13.06,3.21c-4.16,0.14-8.09-0.86-11.76-3c-3.66-2.15-6.87-5.15-9.6-9
				c-2.74-3.85-4.79-8.47-6.15-13.83c-1.37-5.36-1.77-11.17-1.19-17.47c0.44-7.27,1.8-13.53,4.11-18.75
				c2.3-5.22,4.75-9.53,7.33-12.97c2.58-3.43,5-5.96,7.23-7.6c2.22-1.65,3.63-2.62,4.2-2.9c1.01-0.43,1.94-0.54,2.81-0.32
				c0.87,0.2,1.8,0.46,2.8,0.75c0.29,0.14,0.58,0.49,0.87,1.07c0.56,1,0.93,2.86,1.07,5.57c0.72-1.57,1.65-2.86,2.81-3.86
				c1.15-1,2.3-1.71,3.45-2.14c1.43-0.57,2.87-0.92,4.32-1.07c1-0.14,2.76,0.64,5.28,2.35c2.52,1.72,4.96,4.44,7.34,8.15
				c2.37,3.73,4.42,8.54,6.14,14.48C1108.29,593.44,1108.94,600.55,1108.49,608.84 M1093.83,606.27c0.14-3.43,0.04-6.89-0.32-10.4
				c-0.36-3.5-0.94-6.72-1.72-9.65c-0.79-2.93-1.77-5.28-2.92-7.07c-1.15-1.79-2.3-2.68-3.45-2.68c-1.29,0.29-2.74,0.93-4.3,1.93
				c-1.3,0.86-2.75,2.22-4.32,4.08c-1.58,1.85-3.1,4.49-4.53,7.92c-0.14-0.42-0.29-1.2-0.43-2.36c-0.15-1-0.25-2.33-0.32-3.97
				c-0.08-1.64,0.04-3.89,0.32-6.76c-2.02,2.43-3.57,5.3-4.64,8.58c-1.08,3.29-1.91,6.43-2.48,9.43c-0.57,3.57-1.01,7.15-1.3,10.72
				c-0.14,3.86,0.04,7.64,0.54,11.36c0.51,3.72,1.37,7.01,2.59,9.86c1.22,2.85,2.7,5.14,4.42,6.86c1.73,1.71,3.81,2.5,6.26,2.36
				c2.44-0.14,4.6-1.15,6.47-3.01c1.88-1.85,3.53-4.21,4.97-7.07c1.44-2.86,2.59-6.07,3.46-9.64
				C1092.97,613.2,1093.54,609.7,1093.83,606.27"/>
		</g>
	</g>
</g>
</svg>
